<svg width="47" height="49" viewBox="0 0 47 49" fill="none" xmlns="http://www.w3.org/2000/svg">
<path fill-rule="evenodd" clip-rule="evenodd" d="M1.17112 12.893C-0.00300032 13.4038 -0.366814 14.8874 0.413412 15.9834C1.05782 16.8882 1.65069 17.0344 4.67747 17.0344H7.37246L7.65183 18.046C9.3247 24.1029 13.315 38.0894 13.4626 38.4135C13.5675 38.6437 13.9067 38.9523 14.2163 39.0992C14.7398 39.3476 15.2143 39.3063 21.0089 38.5056C24.4354 38.0324 30.0491 37.2631 33.4841 36.796C39.2884 36.007 39.7642 35.916 40.2225 35.5068C40.6773 35.1008 40.9 34.3229 43.0924 25.4788C44.3997 20.2054 45.4721 15.6164 45.4758 15.2811C45.4806 14.816 45.3521 14.5553 44.934 14.1816C44.6326 13.9123 44.2435 13.6918 44.0693 13.6918C43.8951 13.6918 36.4433 14.7227 27.5095 15.9827C18.5759 17.2425 11.2493 18.252 11.2284 18.2258C11.2074 18.1994 10.9363 17.3085 10.6258 16.2457C10.3152 15.183 9.97351 14.208 9.86655 14.079C9.4394 13.5643 8.63138 13.3581 5.65807 13.0048C2.04511 12.5758 1.90842 12.5722 1.17112 12.893ZM38.7576 18.3099C38.7551 18.4309 38.6805 18.8464 38.5919 19.2335C38.503 19.6205 38.0305 22.3121 37.5418 25.2149C37.0529 28.1176 36.6122 30.6679 36.5622 30.882C36.5 31.1487 36.2642 31.3293 35.8133 31.456C34.7247 31.7616 18.682 35.1546 18.3255 35.1546C17.9297 35.1546 18.0472 35.4234 16.0584 29.9649C15.177 27.5459 14.3118 25.1764 14.1359 24.6993C13.96 24.2221 13.8546 23.7315 13.9016 23.6089C13.9997 23.3531 13.8254 23.3944 27.5026 20.3866C33.163 19.1418 38.012 18.1158 38.278 18.1067C38.5588 18.097 38.7601 18.1823 38.7576 18.3099ZM31.8828 0.403401C30.4445 0.895638 29.2756 1.57893 28.3246 2.48353C27.4184 3.34557 27.5786 3.51586 29.1752 3.38761C29.7935 3.338 30.2995 3.357 30.2995 3.43001C30.2995 3.50302 29.9751 3.87756 29.5786 4.26231C27.1529 6.61635 27.7957 10.7898 30.7097 11.6058C32.0114 11.9703 33.7768 11.7692 35.1316 11.1023C38.2047 9.58931 39.7334 5.2642 38.234 2.32503C37.8454 1.56345 36.6618 0.423982 35.9965 0.171002C35.1946 -0.1337 33.1083 -0.0160034 31.8828 0.403401ZM43.7991 35.8811C41.0103 38.8077 39.3816 40.1594 37.3245 41.2538C34.8097 42.5919 30.9314 43.6779 27.1253 44.1099C24.8845 44.3642 21.0773 44.2364 19.0607 43.8392C15.3922 43.1165 11.512 41.3784 8.05575 38.9091C6.06991 37.4906 5.65807 37.3073 5.65807 37.8424C5.65807 38.2464 7.24667 40.2589 8.6509 41.6338C13.1331 46.0228 18.5727 48.2072 25.0098 48.2034C33.2242 48.1984 39.3619 45.2109 44.0339 38.9429C45.3426 37.1871 46.7717 34.5884 46.8559 33.8115C46.9692 32.7658 46.4005 33.1509 43.7991 35.8811Z" fill="#0182FE"/>
<path d="M10.9412 10.0013C12.0392 8.72619 13.4432 7.70565 15.2154 6.89449C16.7253 6.20337 19.3717 5.78748 20.4334 6.07403C21.3144 6.312 22.9695 7.61482 23.5622 8.53684C24.722 10.3413 23.4669 10.4394 21.9478 10.0977C19.822 9.61956 17.6018 9.39697 15.5337 10.0829L15.4158 10.1333C14.5749 10.4928 13.6967 10.7583 12.7974 10.9248C12.3604 11.0057 11.9172 11.0809 11.4751 11.0349C10.9117 10.9763 10.2914 10.756 10.9412 10.0013Z" fill="#0182FE"/>
</svg>
